<svg xmlns="http://www.w3.org/2000/svg" xmlns:xlink="http://www.w3.org/1999/xlink" version="1.1" x="0px" y="0px" viewBox="0 0 100 100" enable-background="new 0 0 100 100" xml:space="preserve"><g><path fill="#FFFFFF" stroke="transparent" d="M92.182,58.438h-3.646c-0.135-8.347-5.999-15.322-13.825-17.159c-0.148-2.133-1.927-3.825-4.097-3.825   c-2.171,0-3.949,1.692-4.097,3.825c-7.826,1.837-13.69,8.812-13.825,17.159h-3.241c-0.443-5.758-5.252-10.547-11.406-10.547H23.997   c-4.139,0-7.671,2.166-9.675,5.337l-0.286,0.172c-3.852,2.395-6.152,6.529-6.152,11.059c0,4.794,2.624,9.186,6.869,11.473   l1.556,0.794l0.68,2.917c1.52,6.523,7.335,11.139,14.034,11.139c6.698,0,12.513-4.616,14.034-11.139l4.087-17.536   c2.731,3.462,6.908,5.539,11.41,5.539c5.142,0,9.865-2.707,12.486-7.099h19.145V58.438z M70.614,39.563   c0.871,0,1.611,0.56,1.886,1.338c-0.62-0.065-1.249-0.1-1.886-0.1c-0.637,0-1.266,0.035-1.886,0.1   C69.003,40.123,69.743,39.563,70.614,39.563z M9.992,64.458c0-2.732,1.003-5.29,2.762-7.255c-0.286,1.509-0.273,3.107,0.103,4.722   l2.822,12.108C12.171,72.117,9.992,68.455,9.992,64.458z M47.13,61.445L43,79.164c-1.305,5.598-6.231,9.508-11.979,9.508   s-10.675-3.91-11.979-9.508l-4.13-17.718c-0.65-2.789-0.002-5.674,1.778-7.917C18.47,51.286,21.133,50,23.997,50h14.049   c2.863,0,5.526,1.286,7.306,3.529C47.132,55.772,47.78,58.657,47.13,61.445z M60.551,65.537c-3.96,0-7.632-1.874-9.96-4.99h19.921   C68.183,63.663,64.511,65.537,60.551,65.537z M54.801,58.438c0.157-8.588,7.188-15.527,15.813-15.527s15.656,6.939,15.813,15.527   H54.801z"/><path fill="#FFFFFF" d="M18.562,45.825h24.917c5.925,0,10.745-4.82,10.745-10.745c0-12.031-9.788-21.819-21.819-21.819h-0.329v-2.118   c1.227-0.436,2.109-1.605,2.109-2.979C34.185,6.419,32.766,5,31.021,5s-3.164,1.419-3.164,3.164c0,1.374,0.883,2.544,2.11,2.98   v2.118h-0.33c-12.031,0-21.819,9.788-21.819,21.819C7.818,41.005,12.638,45.825,18.562,45.825z M31.021,7.109   c0.582,0,1.055,0.473,1.055,1.055s-0.473,1.055-1.055,1.055s-1.055-0.473-1.055-1.055S30.439,7.109,31.021,7.109z M29.637,15.371   h2.769c10.868,0,19.709,8.842,19.709,19.709c0,4.762-3.874,8.635-8.635,8.635H18.562c-4.762,0-8.635-3.874-8.635-8.635   C9.927,24.213,18.769,15.371,29.637,15.371z"/><path fill="#FFFFFF" d="M31.021,59.037c-2.985,0-5.414,2.429-5.414,5.414c0,2.985,2.429,5.414,5.414,5.414c2.986,0,5.414-2.429,5.414-5.414   C36.435,61.466,34.007,59.037,31.021,59.037z M31.021,67.756c-1.825,0-3.305-1.48-3.305-3.305c0-1.825,1.48-3.305,3.305-3.305   c1.825,0,3.305,1.48,3.305,3.305C34.326,66.277,32.846,67.756,31.021,67.756z"/><path fill="#FFFFFF" d="M35.591,92.891h-9.141c-0.582,0-1.055,0.472-1.055,1.055S25.868,95,26.451,95h9.141c0.582,0,1.055-0.472,1.055-1.055   S36.174,92.891,35.591,92.891z"/><path fill="#FFFFFF" d="M31.021,39.411c-1.172,0-2.232-0.481-2.998-1.255h-2.59c1.065,1.999,3.169,3.364,5.587,3.364s4.522-1.365,5.587-3.364   h-2.59C33.253,38.93,32.192,39.411,31.021,39.411z"/><path fill="#FFFFFF" d="M23.634,29.802c0.791,0,1.471,0.475,1.774,1.155h2.2c-0.368-1.858-2.009-3.264-3.974-3.264s-3.606,1.406-3.974,3.264h2.2   C22.163,30.278,22.843,29.802,23.634,29.802z"/><path fill="#FFFFFF" d="M38.423,29.802c0.791,0,1.471,0.475,1.774,1.155h2.2c-0.368-1.858-2.009-3.264-3.974-3.264s-3.606,1.406-3.974,3.264h2.2   C36.952,30.278,37.633,29.802,38.423,29.802z"/><path fill="#FFFFFF" d="M19.771,35.509h22.5c2.52,0,4.57-2.05,4.57-4.57v-3.252c0-2.52-2.05-4.57-4.57-4.57h-22.5c-2.52,0-4.57,2.05-4.57,4.57   v3.252C15.201,33.459,17.251,35.509,19.771,35.509z M17.31,27.687c0-1.357,1.104-2.461,2.461-2.461h22.5   c1.357,0,2.461,1.104,2.461,2.461v3.252c0,1.357-1.104,2.461-2.461,2.461h-22.5c-1.357,0-2.461-1.104-2.461-2.461V27.687z"/></g></svg>